<mxfile host="Electron" agent="Mozilla/5.0 (Windows NT 10.0; Win64; x64) AppleWebKit/537.36 (KHTML, like Gecko) draw.io/26.1.1 Chrome/132.0.6834.210 Electron/34.3.3 Safari/537.36" version="26.1.1">
  <diagram name="Page-1" id="Sgz3Cvs7-yU0taj-ncBx">
    <mxGraphModel dx="889" dy="515" grid="1" gridSize="5" guides="1" tooltips="1" connect="1" arrows="1" fold="1" page="1" pageScale="1" pageWidth="850" pageHeight="1100" math="0" shadow="0">
      <root>
        <mxCell id="0" />
        <mxCell id="1" parent="0" />
        <mxCell id="a1KW9QW43is0FXHoZ_OC-1" value="project" style="shape=table;startSize=30;container=1;collapsible=1;childLayout=tableLayout;fixedRows=1;rowLines=0;fontStyle=1;align=center;resizeLast=1;html=1;" parent="1" vertex="1">
          <mxGeometry x="185" y="70" width="130" height="210" as="geometry" />
        </mxCell>
        <mxCell id="a1KW9QW43is0FXHoZ_OC-2" value="" style="shape=tableRow;horizontal=0;startSize=0;swimlaneHead=0;swimlaneBody=0;fillColor=none;collapsible=0;dropTarget=0;points=[[0,0.5],[1,0.5]];portConstraint=eastwest;top=0;left=0;right=0;bottom=1;" parent="a1KW9QW43is0FXHoZ_OC-1" vertex="1">
          <mxGeometry y="30" width="130" height="30" as="geometry" />
        </mxCell>
        <mxCell id="a1KW9QW43is0FXHoZ_OC-3" value="PK" style="shape=partialRectangle;connectable=0;fillColor=none;top=0;left=0;bottom=0;right=0;fontStyle=1;overflow=hidden;whiteSpace=wrap;html=1;" parent="a1KW9QW43is0FXHoZ_OC-2" vertex="1">
          <mxGeometry width="30" height="30" as="geometry">
            <mxRectangle width="30" height="30" as="alternateBounds" />
          </mxGeometry>
        </mxCell>
        <mxCell id="a1KW9QW43is0FXHoZ_OC-4" value="project_id" style="shape=partialRectangle;connectable=0;fillColor=none;top=0;left=0;bottom=0;right=0;align=left;spacingLeft=6;fontStyle=5;overflow=hidden;whiteSpace=wrap;html=1;" parent="a1KW9QW43is0FXHoZ_OC-2" vertex="1">
          <mxGeometry x="30" width="100" height="30" as="geometry">
            <mxRectangle width="100" height="30" as="alternateBounds" />
          </mxGeometry>
        </mxCell>
        <mxCell id="a1KW9QW43is0FXHoZ_OC-5" value="" style="shape=tableRow;horizontal=0;startSize=0;swimlaneHead=0;swimlaneBody=0;fillColor=none;collapsible=0;dropTarget=0;points=[[0,0.5],[1,0.5]];portConstraint=eastwest;top=0;left=0;right=0;bottom=0;" parent="a1KW9QW43is0FXHoZ_OC-1" vertex="1">
          <mxGeometry y="60" width="130" height="30" as="geometry" />
        </mxCell>
        <mxCell id="a1KW9QW43is0FXHoZ_OC-6" value="" style="shape=partialRectangle;connectable=0;fillColor=none;top=0;left=0;bottom=0;right=0;editable=1;overflow=hidden;whiteSpace=wrap;html=1;" parent="a1KW9QW43is0FXHoZ_OC-5" vertex="1">
          <mxGeometry width="30" height="30" as="geometry">
            <mxRectangle width="30" height="30" as="alternateBounds" />
          </mxGeometry>
        </mxCell>
        <mxCell id="a1KW9QW43is0FXHoZ_OC-7" value="project_name" style="shape=partialRectangle;connectable=0;fillColor=none;top=0;left=0;bottom=0;right=0;align=left;spacingLeft=6;overflow=hidden;whiteSpace=wrap;html=1;" parent="a1KW9QW43is0FXHoZ_OC-5" vertex="1">
          <mxGeometry x="30" width="100" height="30" as="geometry">
            <mxRectangle width="100" height="30" as="alternateBounds" />
          </mxGeometry>
        </mxCell>
        <mxCell id="a1KW9QW43is0FXHoZ_OC-8" value="" style="shape=tableRow;horizontal=0;startSize=0;swimlaneHead=0;swimlaneBody=0;fillColor=none;collapsible=0;dropTarget=0;points=[[0,0.5],[1,0.5]];portConstraint=eastwest;top=0;left=0;right=0;bottom=0;" parent="a1KW9QW43is0FXHoZ_OC-1" vertex="1">
          <mxGeometry y="90" width="130" height="30" as="geometry" />
        </mxCell>
        <mxCell id="a1KW9QW43is0FXHoZ_OC-9" value="" style="shape=partialRectangle;connectable=0;fillColor=none;top=0;left=0;bottom=0;right=0;editable=1;overflow=hidden;whiteSpace=wrap;html=1;" parent="a1KW9QW43is0FXHoZ_OC-8" vertex="1">
          <mxGeometry width="30" height="30" as="geometry">
            <mxRectangle width="30" height="30" as="alternateBounds" />
          </mxGeometry>
        </mxCell>
        <mxCell id="a1KW9QW43is0FXHoZ_OC-10" value="estimated_hours" style="shape=partialRectangle;connectable=0;fillColor=none;top=0;left=0;bottom=0;right=0;align=left;spacingLeft=6;overflow=hidden;whiteSpace=wrap;html=1;" parent="a1KW9QW43is0FXHoZ_OC-8" vertex="1">
          <mxGeometry x="30" width="100" height="30" as="geometry">
            <mxRectangle width="100" height="30" as="alternateBounds" />
          </mxGeometry>
        </mxCell>
        <mxCell id="a1KW9QW43is0FXHoZ_OC-11" value="" style="shape=tableRow;horizontal=0;startSize=0;swimlaneHead=0;swimlaneBody=0;fillColor=none;collapsible=0;dropTarget=0;points=[[0,0.5],[1,0.5]];portConstraint=eastwest;top=0;left=0;right=0;bottom=0;" parent="a1KW9QW43is0FXHoZ_OC-1" vertex="1">
          <mxGeometry y="120" width="130" height="30" as="geometry" />
        </mxCell>
        <mxCell id="a1KW9QW43is0FXHoZ_OC-12" value="" style="shape=partialRectangle;connectable=0;fillColor=none;top=0;left=0;bottom=0;right=0;editable=1;overflow=hidden;whiteSpace=wrap;html=1;" parent="a1KW9QW43is0FXHoZ_OC-11" vertex="1">
          <mxGeometry width="30" height="30" as="geometry">
            <mxRectangle width="30" height="30" as="alternateBounds" />
          </mxGeometry>
        </mxCell>
        <mxCell id="a1KW9QW43is0FXHoZ_OC-13" value="actual_hours" style="shape=partialRectangle;connectable=0;fillColor=none;top=0;left=0;bottom=0;right=0;align=left;spacingLeft=6;overflow=hidden;whiteSpace=wrap;html=1;" parent="a1KW9QW43is0FXHoZ_OC-11" vertex="1">
          <mxGeometry x="30" width="100" height="30" as="geometry">
            <mxRectangle width="100" height="30" as="alternateBounds" />
          </mxGeometry>
        </mxCell>
        <mxCell id="a1KW9QW43is0FXHoZ_OC-14" style="shape=tableRow;horizontal=0;startSize=0;swimlaneHead=0;swimlaneBody=0;fillColor=none;collapsible=0;dropTarget=0;points=[[0,0.5],[1,0.5]];portConstraint=eastwest;top=0;left=0;right=0;bottom=0;" parent="a1KW9QW43is0FXHoZ_OC-1" vertex="1">
          <mxGeometry y="150" width="130" height="30" as="geometry" />
        </mxCell>
        <mxCell id="a1KW9QW43is0FXHoZ_OC-15" style="shape=partialRectangle;connectable=0;fillColor=none;top=0;left=0;bottom=0;right=0;editable=1;overflow=hidden;whiteSpace=wrap;html=1;" parent="a1KW9QW43is0FXHoZ_OC-14" vertex="1">
          <mxGeometry width="30" height="30" as="geometry">
            <mxRectangle width="30" height="30" as="alternateBounds" />
          </mxGeometry>
        </mxCell>
        <mxCell id="a1KW9QW43is0FXHoZ_OC-16" value="difficulty" style="shape=partialRectangle;connectable=0;fillColor=none;top=0;left=0;bottom=0;right=0;align=left;spacingLeft=6;overflow=hidden;whiteSpace=wrap;html=1;" parent="a1KW9QW43is0FXHoZ_OC-14" vertex="1">
          <mxGeometry x="30" width="100" height="30" as="geometry">
            <mxRectangle width="100" height="30" as="alternateBounds" />
          </mxGeometry>
        </mxCell>
        <mxCell id="a1KW9QW43is0FXHoZ_OC-20" style="shape=tableRow;horizontal=0;startSize=0;swimlaneHead=0;swimlaneBody=0;fillColor=none;collapsible=0;dropTarget=0;points=[[0,0.5],[1,0.5]];portConstraint=eastwest;top=0;left=0;right=0;bottom=0;" parent="a1KW9QW43is0FXHoZ_OC-1" vertex="1">
          <mxGeometry y="180" width="130" height="30" as="geometry" />
        </mxCell>
        <mxCell id="a1KW9QW43is0FXHoZ_OC-21" style="shape=partialRectangle;connectable=0;fillColor=none;top=0;left=0;bottom=0;right=0;editable=1;overflow=hidden;whiteSpace=wrap;html=1;" parent="a1KW9QW43is0FXHoZ_OC-20" vertex="1">
          <mxGeometry width="30" height="30" as="geometry">
            <mxRectangle width="30" height="30" as="alternateBounds" />
          </mxGeometry>
        </mxCell>
        <mxCell id="a1KW9QW43is0FXHoZ_OC-22" value="notes" style="shape=partialRectangle;connectable=0;fillColor=none;top=0;left=0;bottom=0;right=0;align=left;spacingLeft=6;overflow=hidden;whiteSpace=wrap;html=1;" parent="a1KW9QW43is0FXHoZ_OC-20" vertex="1">
          <mxGeometry x="30" width="100" height="30" as="geometry">
            <mxRectangle width="100" height="30" as="alternateBounds" />
          </mxGeometry>
        </mxCell>
        <mxCell id="a1KW9QW43is0FXHoZ_OC-23" value="material" style="shape=table;startSize=30;container=1;collapsible=1;childLayout=tableLayout;fixedRows=1;rowLines=0;fontStyle=1;align=center;resizeLast=1;html=1;" parent="1" vertex="1">
          <mxGeometry x="425" y="70" width="135" height="180" as="geometry" />
        </mxCell>
        <mxCell id="a1KW9QW43is0FXHoZ_OC-24" value="" style="shape=tableRow;horizontal=0;startSize=0;swimlaneHead=0;swimlaneBody=0;fillColor=none;collapsible=0;dropTarget=0;points=[[0,0.5],[1,0.5]];portConstraint=eastwest;top=0;left=0;right=0;bottom=1;" parent="a1KW9QW43is0FXHoZ_OC-23" vertex="1">
          <mxGeometry y="30" width="135" height="30" as="geometry" />
        </mxCell>
        <mxCell id="a1KW9QW43is0FXHoZ_OC-25" value="PK" style="shape=partialRectangle;connectable=0;fillColor=none;top=0;left=0;bottom=0;right=0;fontStyle=1;overflow=hidden;whiteSpace=wrap;html=1;" parent="a1KW9QW43is0FXHoZ_OC-24" vertex="1">
          <mxGeometry width="30" height="30" as="geometry">
            <mxRectangle width="30" height="30" as="alternateBounds" />
          </mxGeometry>
        </mxCell>
        <mxCell id="a1KW9QW43is0FXHoZ_OC-26" value="material_id" style="shape=partialRectangle;connectable=0;fillColor=none;top=0;left=0;bottom=0;right=0;align=left;spacingLeft=6;fontStyle=5;overflow=hidden;whiteSpace=wrap;html=1;" parent="a1KW9QW43is0FXHoZ_OC-24" vertex="1">
          <mxGeometry x="30" width="105" height="30" as="geometry">
            <mxRectangle width="105" height="30" as="alternateBounds" />
          </mxGeometry>
        </mxCell>
        <mxCell id="a1KW9QW43is0FXHoZ_OC-27" value="" style="shape=tableRow;horizontal=0;startSize=0;swimlaneHead=0;swimlaneBody=0;fillColor=none;collapsible=0;dropTarget=0;points=[[0,0.5],[1,0.5]];portConstraint=eastwest;top=0;left=0;right=0;bottom=0;" parent="a1KW9QW43is0FXHoZ_OC-23" vertex="1">
          <mxGeometry y="60" width="135" height="30" as="geometry" />
        </mxCell>
        <mxCell id="a1KW9QW43is0FXHoZ_OC-28" value="FK" style="shape=partialRectangle;connectable=0;fillColor=none;top=0;left=0;bottom=0;right=0;editable=1;overflow=hidden;whiteSpace=wrap;html=1;" parent="a1KW9QW43is0FXHoZ_OC-27" vertex="1">
          <mxGeometry width="30" height="30" as="geometry">
            <mxRectangle width="30" height="30" as="alternateBounds" />
          </mxGeometry>
        </mxCell>
        <mxCell id="a1KW9QW43is0FXHoZ_OC-29" value="project_id" style="shape=partialRectangle;connectable=0;fillColor=none;top=0;left=0;bottom=0;right=0;align=left;spacingLeft=6;overflow=hidden;whiteSpace=wrap;html=1;" parent="a1KW9QW43is0FXHoZ_OC-27" vertex="1">
          <mxGeometry x="30" width="105" height="30" as="geometry">
            <mxRectangle width="105" height="30" as="alternateBounds" />
          </mxGeometry>
        </mxCell>
        <mxCell id="a1KW9QW43is0FXHoZ_OC-33" value="" style="shape=tableRow;horizontal=0;startSize=0;swimlaneHead=0;swimlaneBody=0;fillColor=none;collapsible=0;dropTarget=0;points=[[0,0.5],[1,0.5]];portConstraint=eastwest;top=0;left=0;right=0;bottom=0;" parent="a1KW9QW43is0FXHoZ_OC-23" vertex="1">
          <mxGeometry y="90" width="135" height="30" as="geometry" />
        </mxCell>
        <mxCell id="a1KW9QW43is0FXHoZ_OC-34" value="" style="shape=partialRectangle;connectable=0;fillColor=none;top=0;left=0;bottom=0;right=0;editable=1;overflow=hidden;whiteSpace=wrap;html=1;" parent="a1KW9QW43is0FXHoZ_OC-33" vertex="1">
          <mxGeometry width="30" height="30" as="geometry">
            <mxRectangle width="30" height="30" as="alternateBounds" />
          </mxGeometry>
        </mxCell>
        <mxCell id="a1KW9QW43is0FXHoZ_OC-35" value="material_name" style="shape=partialRectangle;connectable=0;fillColor=none;top=0;left=0;bottom=0;right=0;align=left;spacingLeft=6;overflow=hidden;whiteSpace=wrap;html=1;" parent="a1KW9QW43is0FXHoZ_OC-33" vertex="1">
          <mxGeometry x="30" width="105" height="30" as="geometry">
            <mxRectangle width="105" height="30" as="alternateBounds" />
          </mxGeometry>
        </mxCell>
        <mxCell id="a1KW9QW43is0FXHoZ_OC-39" style="shape=tableRow;horizontal=0;startSize=0;swimlaneHead=0;swimlaneBody=0;fillColor=none;collapsible=0;dropTarget=0;points=[[0,0.5],[1,0.5]];portConstraint=eastwest;top=0;left=0;right=0;bottom=0;" parent="a1KW9QW43is0FXHoZ_OC-23" vertex="1">
          <mxGeometry y="120" width="135" height="30" as="geometry" />
        </mxCell>
        <mxCell id="a1KW9QW43is0FXHoZ_OC-40" style="shape=partialRectangle;connectable=0;fillColor=none;top=0;left=0;bottom=0;right=0;editable=1;overflow=hidden;whiteSpace=wrap;html=1;" parent="a1KW9QW43is0FXHoZ_OC-39" vertex="1">
          <mxGeometry width="30" height="30" as="geometry">
            <mxRectangle width="30" height="30" as="alternateBounds" />
          </mxGeometry>
        </mxCell>
        <mxCell id="a1KW9QW43is0FXHoZ_OC-41" value="num_required" style="shape=partialRectangle;connectable=0;fillColor=none;top=0;left=0;bottom=0;right=0;align=left;spacingLeft=6;overflow=hidden;whiteSpace=wrap;html=1;" parent="a1KW9QW43is0FXHoZ_OC-39" vertex="1">
          <mxGeometry x="30" width="105" height="30" as="geometry">
            <mxRectangle width="105" height="30" as="alternateBounds" />
          </mxGeometry>
        </mxCell>
        <mxCell id="a1KW9QW43is0FXHoZ_OC-36" style="shape=tableRow;horizontal=0;startSize=0;swimlaneHead=0;swimlaneBody=0;fillColor=none;collapsible=0;dropTarget=0;points=[[0,0.5],[1,0.5]];portConstraint=eastwest;top=0;left=0;right=0;bottom=0;" parent="a1KW9QW43is0FXHoZ_OC-23" vertex="1">
          <mxGeometry y="150" width="135" height="30" as="geometry" />
        </mxCell>
        <mxCell id="a1KW9QW43is0FXHoZ_OC-37" style="shape=partialRectangle;connectable=0;fillColor=none;top=0;left=0;bottom=0;right=0;editable=1;overflow=hidden;whiteSpace=wrap;html=1;" parent="a1KW9QW43is0FXHoZ_OC-36" vertex="1">
          <mxGeometry width="30" height="30" as="geometry">
            <mxRectangle width="30" height="30" as="alternateBounds" />
          </mxGeometry>
        </mxCell>
        <mxCell id="a1KW9QW43is0FXHoZ_OC-38" value="cost" style="shape=partialRectangle;connectable=0;fillColor=none;top=0;left=0;bottom=0;right=0;align=left;spacingLeft=6;overflow=hidden;whiteSpace=wrap;html=1;" parent="a1KW9QW43is0FXHoZ_OC-36" vertex="1">
          <mxGeometry x="30" width="105" height="30" as="geometry">
            <mxRectangle width="105" height="30" as="alternateBounds" />
          </mxGeometry>
        </mxCell>
        <mxCell id="a1KW9QW43is0FXHoZ_OC-62" value="step" style="shape=table;startSize=30;container=1;collapsible=1;childLayout=tableLayout;fixedRows=1;rowLines=0;fontStyle=1;align=center;resizeLast=1;html=1;" parent="1" vertex="1">
          <mxGeometry x="422.5" y="310" width="137.5" height="150" as="geometry" />
        </mxCell>
        <mxCell id="a1KW9QW43is0FXHoZ_OC-63" value="" style="shape=tableRow;horizontal=0;startSize=0;swimlaneHead=0;swimlaneBody=0;fillColor=none;collapsible=0;dropTarget=0;points=[[0,0.5],[1,0.5]];portConstraint=eastwest;top=0;left=0;right=0;bottom=1;" parent="a1KW9QW43is0FXHoZ_OC-62" vertex="1">
          <mxGeometry y="30" width="137.5" height="30" as="geometry" />
        </mxCell>
        <mxCell id="a1KW9QW43is0FXHoZ_OC-64" value="PK" style="shape=partialRectangle;connectable=0;fillColor=none;top=0;left=0;bottom=0;right=0;fontStyle=1;overflow=hidden;whiteSpace=wrap;html=1;" parent="a1KW9QW43is0FXHoZ_OC-63" vertex="1">
          <mxGeometry width="30" height="30" as="geometry">
            <mxRectangle width="30" height="30" as="alternateBounds" />
          </mxGeometry>
        </mxCell>
        <mxCell id="a1KW9QW43is0FXHoZ_OC-65" value="step_id" style="shape=partialRectangle;connectable=0;fillColor=none;top=0;left=0;bottom=0;right=0;align=left;spacingLeft=6;fontStyle=5;overflow=hidden;whiteSpace=wrap;html=1;" parent="a1KW9QW43is0FXHoZ_OC-63" vertex="1">
          <mxGeometry x="30" width="107.5" height="30" as="geometry">
            <mxRectangle width="107.5" height="30" as="alternateBounds" />
          </mxGeometry>
        </mxCell>
        <mxCell id="a1KW9QW43is0FXHoZ_OC-66" value="" style="shape=tableRow;horizontal=0;startSize=0;swimlaneHead=0;swimlaneBody=0;fillColor=none;collapsible=0;dropTarget=0;points=[[0,0.5],[1,0.5]];portConstraint=eastwest;top=0;left=0;right=0;bottom=0;" parent="a1KW9QW43is0FXHoZ_OC-62" vertex="1">
          <mxGeometry y="60" width="137.5" height="30" as="geometry" />
        </mxCell>
        <mxCell id="a1KW9QW43is0FXHoZ_OC-67" value="FK" style="shape=partialRectangle;connectable=0;fillColor=none;top=0;left=0;bottom=0;right=0;editable=1;overflow=hidden;whiteSpace=wrap;html=1;" parent="a1KW9QW43is0FXHoZ_OC-66" vertex="1">
          <mxGeometry width="30" height="30" as="geometry">
            <mxRectangle width="30" height="30" as="alternateBounds" />
          </mxGeometry>
        </mxCell>
        <mxCell id="a1KW9QW43is0FXHoZ_OC-68" value="project_id" style="shape=partialRectangle;connectable=0;fillColor=none;top=0;left=0;bottom=0;right=0;align=left;spacingLeft=6;overflow=hidden;whiteSpace=wrap;html=1;" parent="a1KW9QW43is0FXHoZ_OC-66" vertex="1">
          <mxGeometry x="30" width="107.5" height="30" as="geometry">
            <mxRectangle width="107.5" height="30" as="alternateBounds" />
          </mxGeometry>
        </mxCell>
        <mxCell id="a1KW9QW43is0FXHoZ_OC-69" value="" style="shape=tableRow;horizontal=0;startSize=0;swimlaneHead=0;swimlaneBody=0;fillColor=none;collapsible=0;dropTarget=0;points=[[0,0.5],[1,0.5]];portConstraint=eastwest;top=0;left=0;right=0;bottom=0;" parent="a1KW9QW43is0FXHoZ_OC-62" vertex="1">
          <mxGeometry y="90" width="137.5" height="30" as="geometry" />
        </mxCell>
        <mxCell id="a1KW9QW43is0FXHoZ_OC-70" value="" style="shape=partialRectangle;connectable=0;fillColor=none;top=0;left=0;bottom=0;right=0;editable=1;overflow=hidden;whiteSpace=wrap;html=1;" parent="a1KW9QW43is0FXHoZ_OC-69" vertex="1">
          <mxGeometry width="30" height="30" as="geometry">
            <mxRectangle width="30" height="30" as="alternateBounds" />
          </mxGeometry>
        </mxCell>
        <mxCell id="a1KW9QW43is0FXHoZ_OC-71" value="step_text" style="shape=partialRectangle;connectable=0;fillColor=none;top=0;left=0;bottom=0;right=0;align=left;spacingLeft=6;overflow=hidden;whiteSpace=wrap;html=1;" parent="a1KW9QW43is0FXHoZ_OC-69" vertex="1">
          <mxGeometry x="30" width="107.5" height="30" as="geometry">
            <mxRectangle width="107.5" height="30" as="alternateBounds" />
          </mxGeometry>
        </mxCell>
        <mxCell id="a1KW9QW43is0FXHoZ_OC-72" value="" style="shape=tableRow;horizontal=0;startSize=0;swimlaneHead=0;swimlaneBody=0;fillColor=none;collapsible=0;dropTarget=0;points=[[0,0.5],[1,0.5]];portConstraint=eastwest;top=0;left=0;right=0;bottom=0;" parent="a1KW9QW43is0FXHoZ_OC-62" vertex="1">
          <mxGeometry y="120" width="137.5" height="30" as="geometry" />
        </mxCell>
        <mxCell id="a1KW9QW43is0FXHoZ_OC-73" value="" style="shape=partialRectangle;connectable=0;fillColor=none;top=0;left=0;bottom=0;right=0;editable=1;overflow=hidden;whiteSpace=wrap;html=1;" parent="a1KW9QW43is0FXHoZ_OC-72" vertex="1">
          <mxGeometry width="30" height="30" as="geometry">
            <mxRectangle width="30" height="30" as="alternateBounds" />
          </mxGeometry>
        </mxCell>
        <mxCell id="a1KW9QW43is0FXHoZ_OC-74" value="step_order" style="shape=partialRectangle;connectable=0;fillColor=none;top=0;left=0;bottom=0;right=0;align=left;spacingLeft=6;overflow=hidden;whiteSpace=wrap;html=1;" parent="a1KW9QW43is0FXHoZ_OC-72" vertex="1">
          <mxGeometry x="30" width="107.5" height="30" as="geometry">
            <mxRectangle width="107.5" height="30" as="alternateBounds" />
          </mxGeometry>
        </mxCell>
        <mxCell id="a1KW9QW43is0FXHoZ_OC-104" value="category" style="shape=table;startSize=30;container=1;collapsible=1;childLayout=tableLayout;fixedRows=1;rowLines=0;fontStyle=1;align=center;resizeLast=1;html=1;" parent="1" vertex="1">
          <mxGeometry x="180" y="475" width="145" height="90" as="geometry" />
        </mxCell>
        <mxCell id="a1KW9QW43is0FXHoZ_OC-105" value="" style="shape=tableRow;horizontal=0;startSize=0;swimlaneHead=0;swimlaneBody=0;fillColor=none;collapsible=0;dropTarget=0;points=[[0,0.5],[1,0.5]];portConstraint=eastwest;top=0;left=0;right=0;bottom=1;" parent="a1KW9QW43is0FXHoZ_OC-104" vertex="1">
          <mxGeometry y="30" width="145" height="30" as="geometry" />
        </mxCell>
        <mxCell id="a1KW9QW43is0FXHoZ_OC-106" value="PK" style="shape=partialRectangle;connectable=0;fillColor=none;top=0;left=0;bottom=0;right=0;fontStyle=1;overflow=hidden;whiteSpace=wrap;html=1;" parent="a1KW9QW43is0FXHoZ_OC-105" vertex="1">
          <mxGeometry width="30" height="30" as="geometry">
            <mxRectangle width="30" height="30" as="alternateBounds" />
          </mxGeometry>
        </mxCell>
        <mxCell id="a1KW9QW43is0FXHoZ_OC-107" value="category_id" style="shape=partialRectangle;connectable=0;fillColor=none;top=0;left=0;bottom=0;right=0;align=left;spacingLeft=6;fontStyle=5;overflow=hidden;whiteSpace=wrap;html=1;" parent="a1KW9QW43is0FXHoZ_OC-105" vertex="1">
          <mxGeometry x="30" width="115" height="30" as="geometry">
            <mxRectangle width="115" height="30" as="alternateBounds" />
          </mxGeometry>
        </mxCell>
        <mxCell id="a1KW9QW43is0FXHoZ_OC-108" value="" style="shape=tableRow;horizontal=0;startSize=0;swimlaneHead=0;swimlaneBody=0;fillColor=none;collapsible=0;dropTarget=0;points=[[0,0.5],[1,0.5]];portConstraint=eastwest;top=0;left=0;right=0;bottom=0;" parent="a1KW9QW43is0FXHoZ_OC-104" vertex="1">
          <mxGeometry y="60" width="145" height="30" as="geometry" />
        </mxCell>
        <mxCell id="a1KW9QW43is0FXHoZ_OC-109" value="" style="shape=partialRectangle;connectable=0;fillColor=none;top=0;left=0;bottom=0;right=0;editable=1;overflow=hidden;whiteSpace=wrap;html=1;" parent="a1KW9QW43is0FXHoZ_OC-108" vertex="1">
          <mxGeometry width="30" height="30" as="geometry">
            <mxRectangle width="30" height="30" as="alternateBounds" />
          </mxGeometry>
        </mxCell>
        <mxCell id="a1KW9QW43is0FXHoZ_OC-110" value="category_name" style="shape=partialRectangle;connectable=0;fillColor=none;top=0;left=0;bottom=0;right=0;align=left;spacingLeft=6;overflow=hidden;whiteSpace=wrap;html=1;" parent="a1KW9QW43is0FXHoZ_OC-108" vertex="1">
          <mxGeometry x="30" width="115" height="30" as="geometry">
            <mxRectangle width="115" height="30" as="alternateBounds" />
          </mxGeometry>
        </mxCell>
        <mxCell id="a1KW9QW43is0FXHoZ_OC-117" value="project_category" style="shape=table;startSize=30;container=1;collapsible=1;childLayout=tableLayout;fixedRows=1;rowLines=0;fontStyle=1;align=center;resizeLast=1;html=1;whiteSpace=wrap;" parent="1" vertex="1">
          <mxGeometry x="182.5" y="330" width="142.5" height="90" as="geometry" />
        </mxCell>
        <mxCell id="a1KW9QW43is0FXHoZ_OC-118" value="" style="shape=tableRow;horizontal=0;startSize=0;swimlaneHead=0;swimlaneBody=0;fillColor=none;collapsible=0;dropTarget=0;points=[[0,0.5],[1,0.5]];portConstraint=eastwest;top=0;left=0;right=0;bottom=0;html=1;" parent="a1KW9QW43is0FXHoZ_OC-117" vertex="1">
          <mxGeometry y="30" width="142.5" height="30" as="geometry" />
        </mxCell>
        <mxCell id="a1KW9QW43is0FXHoZ_OC-119" value="PK,FK1" style="shape=partialRectangle;connectable=0;fillColor=none;top=0;left=0;bottom=0;right=0;fontStyle=1;overflow=hidden;html=1;whiteSpace=wrap;" parent="a1KW9QW43is0FXHoZ_OC-118" vertex="1">
          <mxGeometry width="60" height="30" as="geometry">
            <mxRectangle width="60" height="30" as="alternateBounds" />
          </mxGeometry>
        </mxCell>
        <mxCell id="a1KW9QW43is0FXHoZ_OC-120" value="project_id" style="shape=partialRectangle;connectable=0;fillColor=none;top=0;left=0;bottom=0;right=0;align=left;spacingLeft=6;fontStyle=5;overflow=hidden;html=1;whiteSpace=wrap;" parent="a1KW9QW43is0FXHoZ_OC-118" vertex="1">
          <mxGeometry x="60" width="82.5" height="30" as="geometry">
            <mxRectangle width="82.5" height="30" as="alternateBounds" />
          </mxGeometry>
        </mxCell>
        <mxCell id="a1KW9QW43is0FXHoZ_OC-121" value="" style="shape=tableRow;horizontal=0;startSize=0;swimlaneHead=0;swimlaneBody=0;fillColor=none;collapsible=0;dropTarget=0;points=[[0,0.5],[1,0.5]];portConstraint=eastwest;top=0;left=0;right=0;bottom=1;html=1;" parent="a1KW9QW43is0FXHoZ_OC-117" vertex="1">
          <mxGeometry y="60" width="142.5" height="30" as="geometry" />
        </mxCell>
        <mxCell id="a1KW9QW43is0FXHoZ_OC-122" value="PK,FK2" style="shape=partialRectangle;connectable=0;fillColor=none;top=0;left=0;bottom=0;right=0;fontStyle=1;overflow=hidden;html=1;whiteSpace=wrap;" parent="a1KW9QW43is0FXHoZ_OC-121" vertex="1">
          <mxGeometry width="60" height="30" as="geometry">
            <mxRectangle width="60" height="30" as="alternateBounds" />
          </mxGeometry>
        </mxCell>
        <mxCell id="a1KW9QW43is0FXHoZ_OC-123" value="category_id" style="shape=partialRectangle;connectable=0;fillColor=none;top=0;left=0;bottom=0;right=0;align=left;spacingLeft=6;fontStyle=5;overflow=hidden;html=1;whiteSpace=wrap;" parent="a1KW9QW43is0FXHoZ_OC-121" vertex="1">
          <mxGeometry x="60" width="82.5" height="30" as="geometry">
            <mxRectangle width="82.5" height="30" as="alternateBounds" />
          </mxGeometry>
        </mxCell>
        <mxCell id="a1KW9QW43is0FXHoZ_OC-137" value="" style="fontSize=12;html=1;endArrow=ERzeroToMany;endFill=1;rounded=0;edgeStyle=orthogonalEdgeStyle;curved=1;entryX=0;entryY=0.5;entryDx=0;entryDy=0;startArrow=ERzeroToMany;startFill=0;" parent="1" source="a1KW9QW43is0FXHoZ_OC-105" target="a1KW9QW43is0FXHoZ_OC-2" edge="1">
          <mxGeometry width="100" height="100" relative="1" as="geometry">
            <mxPoint x="175" y="520" as="sourcePoint" />
            <mxPoint x="135" y="120" as="targetPoint" />
            <Array as="points">
              <mxPoint x="80" y="525" />
              <mxPoint x="80" y="115" />
            </Array>
          </mxGeometry>
        </mxCell>
        <mxCell id="a1KW9QW43is0FXHoZ_OC-138" value="" style="endArrow=none;html=1;rounded=0;dashed=1;dashPattern=1 2;curved=1;" parent="1" edge="1">
          <mxGeometry relative="1" as="geometry">
            <mxPoint x="80" y="350" as="sourcePoint" />
            <mxPoint x="180" y="350" as="targetPoint" />
          </mxGeometry>
        </mxCell>
        <mxCell id="a1KW9QW43is0FXHoZ_OC-139" value="" style="resizable=0;html=1;whiteSpace=wrap;align=right;verticalAlign=bottom;" parent="a1KW9QW43is0FXHoZ_OC-138" connectable="0" vertex="1">
          <mxGeometry x="1" relative="1" as="geometry" />
        </mxCell>
        <mxCell id="a1KW9QW43is0FXHoZ_OC-140" value="" style="fontSize=12;html=1;endArrow=ERzeroToMany;endFill=1;rounded=0;entryX=0;entryY=0.5;entryDx=0;entryDy=0;startArrow=ERmandOne;startFill=0;exitX=0.981;exitY=0.281;exitDx=0;exitDy=0;exitPerimeter=0;" parent="1" source="a1KW9QW43is0FXHoZ_OC-2" target="a1KW9QW43is0FXHoZ_OC-27" edge="1">
          <mxGeometry width="100" height="100" relative="1" as="geometry">
            <mxPoint x="315" y="120" as="sourcePoint" />
            <mxPoint x="410" y="15" as="targetPoint" />
          </mxGeometry>
        </mxCell>
        <mxCell id="cKbFrI5EMdCqblT-3kCb-5" value="" style="fontSize=12;html=1;endArrow=ERzeroToMany;endFill=1;rounded=0;startArrow=ERmandOne;startFill=0;edgeStyle=orthogonalEdgeStyle;curved=1;entryX=0;entryY=0.5;entryDx=0;entryDy=0;" parent="1" edge="1">
          <mxGeometry width="100" height="100" relative="1" as="geometry">
            <mxPoint x="315" y="130" as="sourcePoint" />
            <mxPoint x="417.5" y="365" as="targetPoint" />
            <Array as="points">
              <mxPoint x="380" y="130" />
              <mxPoint x="380" y="365" />
            </Array>
          </mxGeometry>
        </mxCell>
      </root>
    </mxGraphModel>
  </diagram>
</mxfile>
